<svg width="276" height="29" viewBox="0 0 276 29" fill="none" xmlns="http://www.w3.org/2000/svg">
<path d="M263.245 28.6434C255.061 28.6434 250.745 25.7343 250.777 19.4366H256.531C256.755 21.9621 258.833 23.5605 263.245 23.5924C267.4 23.5924 269.67 22.1858 269.67 20.0759C269.67 18.2218 268.168 17.2947 264.971 16.7512L261.646 16.1758C256.563 15.2807 251.512 13.9381 251.512 8.08788C251.512 3.00495 255.796 -5.34058e-05 263.309 -5.34058e-05C270.31 -5.34058e-05 275.169 2.46149 275.233 9.11086H269.51C269.095 6.68129 267.209 5.05091 263.181 5.05091C259.536 5.05091 257.618 6.29767 257.618 8.3756C257.618 10.006 258.929 11.029 261.678 11.5404L264.587 12.0519C269.702 12.979 276 13.8421 276 20.2677C276 25.6064 271.62 28.6434 263.245 28.6434Z" fill="white"/>
<path d="M246.779 0.895302V6.23398H236.709V27.7485H230.316V6.23398H220.278V0.895302H246.779Z" fill="white"/>
<path d="M203.872 28.6434C195.688 28.6434 191.372 25.7343 191.404 19.4366H197.158C197.382 21.9621 199.46 23.5605 203.872 23.5924C208.027 23.5924 210.297 22.1858 210.297 20.0759C210.297 18.2218 208.795 17.2947 205.598 16.7512L202.273 16.1758C197.19 15.2807 192.139 13.9381 192.139 8.08788C192.139 3.00495 196.423 -5.34058e-05 203.935 -5.34058e-05C210.937 -5.34058e-05 215.796 2.46149 215.86 9.11086H210.137C209.722 6.68129 207.836 5.05091 203.808 5.05091C200.163 5.05091 198.245 6.29767 198.245 8.3756C198.245 10.006 199.556 11.029 202.305 11.5404L205.214 12.0519C210.329 12.979 216.627 13.8421 216.627 20.2677C216.627 25.6064 212.247 28.6434 203.872 28.6434Z" fill="white"/>
<path d="M136.604 28.6434C127.909 28.6434 121.899 22.7613 121.899 14.3217C121.899 5.88208 127.909 -5.34058e-05 136.604 -5.34058e-05C142.486 -5.34058e-05 148.528 2.62133 149.839 10.5175H143.733C142.582 7.0649 139.929 5.53043 136.604 5.53043C131.841 5.53043 128.197 9.14283 128.197 14.3217C128.197 19.4685 131.841 23.1129 136.604 23.1129C139.929 23.1129 142.582 21.5784 143.733 18.0939H149.839C148.528 26.022 142.55 28.6434 136.604 28.6434Z" fill="white"/>
<path d="M113.361 27.7485L111.699 23.241H98.4641L96.8017 27.7485H90.2163L100.606 0.895302H109.557L119.979 27.7485H113.361ZM100.254 18.4138H109.909L105.689 6.93728H104.474L100.254 18.4138Z" fill="white"/>
<path d="M86.4504 27.7485H80.1207L75.7091 19.7565H67.0457V27.7485H60.6841V0.895302H74.782C81.9749 0.895302 85.7791 4.25195 85.7791 10.5177C85.7791 14.258 83.9569 16.9753 81.2076 18.4778L86.4504 27.7485ZM67.0457 6.23398V14.8654H74.4304C77.6592 14.8654 79.4494 13.3948 79.4494 10.5497C79.4494 7.70451 77.6592 6.23398 74.4304 6.23398H67.0457Z" fill="white"/>
<path d="M49.2304 27.7485L47.568 23.241H34.3332L32.6709 27.7485H26.0854L36.4751 0.895294H45.4262L55.8478 27.7485H49.2304ZM36.1234 18.4138H45.7778L41.558 6.93727H40.3432L36.1234 18.4138Z" fill="white"/>
<path d="M0 27.7485V0.895294H6.36166V22.4098H21.8342V27.7485H0Z" fill="white"/>
<rect width="10.1017" height="2.81954" rx="1.36514" transform="matrix(0.965926 0.258819 0.258819 -0.965926 173.116 13.2552)" fill="url(#paint0_linear_6534_165285)"/>
<rect width="19.2898" height="3.11729" rx="1.36514" transform="matrix(0.965926 0.258819 0.258819 -0.965926 170.129 9.56448)" fill="url(#paint1_linear_6534_165285)"/>
<rect width="18.6279" height="2.81954" rx="1.36514" transform="matrix(0.965926 0.258819 0.258819 -0.965926 167.979 2.92726)" fill="url(#paint2_linear_6534_165285)"/>
<rect width="14.7951" height="2.72556" rx="1.36278" transform="matrix(0.965926 0.258819 0.258819 -0.965926 168.508 5.89062)" fill="url(#paint3_linear_6534_165285)"/>
<path fill-rule="evenodd" clip-rule="evenodd" d="M158.063 28.4355L158.05 28.4583L156.593 28.4583C155.618 28.4582 154.717 27.9378 154.229 27.0931L153.787 26.3285C153.3 25.4844 153.3 24.4446 153.786 23.6001L160.962 11.1486L160.963 11.1486H160.98L166.632 1.3646C167.12 0.520155 168.021 1.12219e-06 168.996 8.00988e-07L169.852 5.19181e-07C170.827 1.97911e-07 171.728 0.520387 172.216 1.36514L185.171 23.8032C185.659 24.648 185.659 25.6888 185.171 26.5335L184.861 27.0704C184.373 27.9152 183.472 28.4356 182.496 28.4356L158.063 28.4355ZM167.73 11.6752L161.593 22.3155L177.245 22.316L169.429 8.77702L167.748 11.6752H167.73Z" fill="url(#paint4_linear_6534_165285)"/>
<defs>
<linearGradient id="paint0_linear_6534_165285" x1="10.1017" y1="1.56641" x2="0.114633" y2="1.56641" gradientUnits="userSpaceOnUse">
<stop stop-color="#8B60ED"/>
<stop offset="1" stop-color="#B372BD"/>
</linearGradient>
<linearGradient id="paint1_linear_6534_165285" x1="0.218898" y1="1.38542" x2="19.2898" y2="1.38542" gradientUnits="userSpaceOnUse">
<stop stop-color="#6EDCC4"/>
<stop offset="1" stop-color="#1AAB8B"/>
</linearGradient>
<linearGradient id="paint2_linear_6534_165285" x1="7.63566" y1="1.69531" x2="9.66247" y2="-5.51233" gradientUnits="userSpaceOnUse">
<stop stop-color="#F44881"/>
<stop offset="1" stop-color="#EC454F"/>
</linearGradient>
<linearGradient id="paint3_linear_6534_165285" x1="14.7951" y1="1.36278" x2="5.07334" y2="-5.65475" gradientUnits="userSpaceOnUse">
<stop stop-color="#F19A1A"/>
<stop offset="1" stop-color="#FFC73C"/>
</linearGradient>
<linearGradient id="paint4_linear_6534_165285" x1="157.028" y1="16.9739" x2="163.853" y2="26.5957" gradientUnits="userSpaceOnUse">
<stop stop-color="#4BDEFF"/>
<stop offset="1" stop-color="#0487EB"/>
</linearGradient>
</defs>
</svg>
