<svg width="275" height="29" viewBox="0 0 275 29" fill="none" xmlns="http://www.w3.org/2000/svg">
<path d="M261.632 28.9072C253.373 28.9072 249.018 25.9713 249.05 19.6156H254.857C255.083 22.1644 257.18 23.7775 261.632 23.8097C265.827 23.8097 268.117 22.3902 268.117 20.2609C268.117 18.3896 266.601 17.454 263.375 16.9056L260.019 16.3248C254.889 15.4215 249.792 14.0665 249.792 8.16242C249.792 3.03268 254.115 0 261.697 0C268.762 0 273.666 2.48421 273.731 9.19482H267.956C267.536 6.74287 265.633 5.09748 261.568 5.09748C257.89 5.09748 255.954 6.35572 255.954 8.45278C255.954 10.0982 257.277 11.1306 260.052 11.6468L262.987 12.163C268.149 13.0986 274.505 13.9697 274.505 20.4544C274.505 25.8423 270.085 28.9072 261.632 28.9072Z" fill="white"/>
<path d="M245.015 0.903809V6.29165H234.852V28.0043H228.4V6.29165H218.27V0.903809H245.015Z" fill="white"/>
<path d="M201.712 28.9072C193.453 28.9072 189.098 25.9713 189.13 19.6156H194.937C195.163 22.1644 197.26 23.7775 201.712 23.8097C205.907 23.8097 208.197 22.3902 208.197 20.2609C208.197 18.3896 206.681 17.454 203.455 16.9056L200.099 16.3248C194.97 15.4215 189.872 14.0665 189.872 8.16242C189.872 3.03268 194.195 0 201.777 0C208.842 0 213.746 2.48421 213.811 9.19482H208.036C207.616 6.74287 205.713 5.09748 201.648 5.09748C197.97 5.09748 196.034 6.35572 196.034 8.45278C196.034 10.0982 197.357 11.1306 200.132 11.6468L203.067 12.163C208.229 13.0986 214.585 13.9697 214.585 20.4544C214.585 25.8423 210.165 28.9072 201.712 28.9072Z" fill="white"/>
<path d="M137.862 28.9072C129.087 28.9072 123.021 22.9709 123.021 14.4536C123.021 5.93631 129.087 0 137.862 0C143.799 0 149.896 2.64553 151.219 10.6144H145.057C143.895 7.13002 141.218 5.58142 137.862 5.58142C133.055 5.58142 129.377 9.22708 129.377 14.4536C129.377 19.6479 133.055 23.3258 137.862 23.3258C141.218 23.3258 143.895 21.7772 145.057 18.2606H151.219C149.896 26.2617 143.863 28.9072 137.862 28.9072Z" fill="white"/>
<path d="M114.405 28.0043L112.727 23.4553H99.3706L97.693 28.0043H91.0469L101.532 0.903809H110.566L121.083 28.0043H114.405ZM101.177 18.5837H110.921L106.662 7.00143H105.436L101.177 18.5837Z" fill="white"/>
<path d="M87.2468 28.0043H80.8588L76.4066 19.9387H67.6634V28.0043H61.2432V0.903809H75.4709C82.73 0.903809 86.5693 4.29137 86.5693 10.6148C86.5693 14.3895 84.7303 17.1319 81.9557 18.6482L87.2468 28.0043ZM67.6634 6.29165V15.0025H75.1161C78.3746 15.0025 80.1813 13.5185 80.1813 10.6471C80.1813 7.77573 78.3746 6.29165 75.1161 6.29165H67.6634Z" fill="white"/>
<path d="M49.6842 28.0043L48.0066 23.4553H34.6499L32.9723 28.0043H26.3262L36.8115 0.903809H45.845L56.3626 28.0043H49.6842ZM36.4566 18.5837H46.1999L41.9412 7.00143H40.7153L36.4566 18.5837Z" fill="white"/>
<path d="M0 28.0043V0.903809H6.42024V22.6165H22.0353V28.0043H0Z" fill="white"/>
<path d="M161.708 11.9979L168.141 0.861818L171.964 0.861816L185.824 24.8681L184.024 27.9844L163.025 27.9843L166.395 22.1469L177.512 22.1473L170.057 9.23356L168.453 11.9979L161.708 11.9979Z" fill="white"/>
<path d="M159.813 15.2896L159.815 15.2896L166.559 15.2896L159.202 28.0064L156.31 28.0064L154.386 24.6741L159.813 15.2896Z" fill="white"/>
</svg>
