<svg width="36" height="36" xmlns="http://www.w3.org/2000/svg"><g fill="none" fill-rule="evenodd"><g fill="#4A4A4A" fill-rule="nonzero"><path d="M5.912 8.827l4.923 4.924a2.597 2.597 0 11-3.673 3.673L2.24 12.5a2.597 2.597 0 113.673-3.673zM16.437 19.352L26.984 29.9a2.597 2.597 0 11-3.673 3.673L12.764 23.024a2.597 2.597 0 013.673-3.673z"/><path d="M3.416 8.16L31.753.798A2.672 2.672 0 0135 2.673a2.592 2.592 0 01-1.846 3.198L4.816 13.234a2.672 2.672 0 01-3.247-1.875A2.592 2.592 0 013.416 8.16z"/><path d="M22.592 31.01l7.363-28.338A2.592 2.592 0 0133.153.826a2.672 2.672 0 011.875 3.247L27.666 32.41a2.592 2.592 0 01-3.199 1.847 2.672 2.672 0 01-1.875-3.247z"/></g><path d="M21.62 17.972L11.384 28.208a2.643 2.643 0 11-3.738-3.738l10.236-10.235a2.643 2.643 0 013.738 3.738zM6.38 33.212l-1.54 1.54a2.643 2.643 0 11-3.738-3.738l1.54-1.54a2.643 2.643 0 013.738 3.738z" fill="#53B5FF"/></g></svg>